<svg version="1.2" xmlns="http://www.w3.org/2000/svg" viewBox="0 0 616 708" width="616" height="708"><style>.a{opacity:.98;fill:#f9fafa}</style><path class="a" d="m341.2 19.9c-0.2 19.1-0.2 19.1 2.1 19.5 1.2 0.3 7.8 0.7 14.7 1 6.9 0.2 17.2 1.2 23 2.1 5.8 0.9 15.5 3 21.5 4.5 6 1.6 16 4.6 22 6.8 6 2.2 15.5 6 21 8.6 5.5 2.6 15.2 7.8 21.5 11.5 6.3 3.8 15.8 10.2 21 14.2 5.2 4 13.1 10.6 17.5 14.7 4.4 4 11.7 11.7 16.3 17 4.5 5.3 12.2 15.6 16.9 22.7 4.8 7.1 11.5 18.9 14.9 26 3.4 7.1 8.1 18.4 10.4 25 2.2 6.6 5.2 16.3 6.5 21.5 1.3 5.2 3.2 14.4 4.2 20.5 1.4 8.3 1.8 16.3 1.8 32.5 0 15.4-0.5 24.6-1.8 32.5-0.9 6.1-2.8 15.6-4.2 21.3-1.4 5.6-2.2 10.8-1.8 11.5 0.3 0.7 0.2 0.9-0.3 0.4-0.5-0.4-2.2 3.2-4 8.5-1.7 5.1-5 13.6-7.3 18.8-2.4 5.2-6.1 12.6-8.4 16.5-2.2 3.9-6.6 10.8-9.7 15.5-3.2 4.7-8.6 12.1-12.1 16.5-3.4 4.4-12.7 14.5-20.6 22.5-7.8 8-14.3 15.1-14.3 15.8 0 0.6 6 6.8 13.3 13.6l13.2 12.4c3.9-2.7 11.3-10 18.9-17.9 7.7-7.9 17.2-18.7 21.1-23.9 4-5.2 10.9-15.1 15.5-22 4.5-6.9 11.5-19.3 15.5-27.5 4-8.3 9.2-20.4 11.5-27 2.2-6.6 5.2-16.3 6.5-21.5 1.3-5.2 2.9-12.2 3.5-15.5 0.6-3.3 1.7-10.7 2.6-16.5 0.8-5.8 1.7-18.6 2.1-28.5 0.4-11.4 0.2-22.8-0.6-31-0.7-7.1-2.6-19.8-4.2-28-1.7-8.3-5.5-22.4-8.5-31.5-3.1-9.1-7.4-20.6-9.7-25.5-2.3-4.9-6.4-13.1-9-18-2.7-4.9-8.1-13.9-12.2-20-4-6.1-11.7-16.4-17.2-23-5.5-6.6-14.7-16.5-20.4-21.9-5.7-5.4-15.9-14-22.6-19-6.7-5-16.8-11.9-22.5-15.3-5.7-3.4-14.8-8.5-20.3-11.3-5.5-2.7-15.6-7.2-22.5-9.9-6.9-2.7-16.5-6-21.5-7.5-5-1.4-11.9-3.2-15.5-4-3.6-0.9-11.9-2.5-18.5-3.6-7.6-1.3-18.8-2.3-30.6-2.7l-18.6-0.6zm-79.2 20.6c-3 3-37.4 37.4-76.4 76.5-61 61.2-70.8 71.4-69.4 72.4 0.9 0.6 45.3 44.6 98.8 97.7 53.5 53 97.8 96.8 98.6 97.2 0.8 0.4 1.9 1.8 2.5 3 1.1 2.1-9.5 12.9-157.2 160.8l-158.3 158.5 55 1c11.5-10.9 76.6-75.7 152.2-151 75.5-75.4 137.8-137.2 138.3-137.3 0.5-0.1 20.8 19.7 45 44l44 44.3c-62.4 62.5-94.4 94.5-111.3 111.3-17 16.9-30.8 30.9-30.8 31.2 0 0.2 7.7 8.1 17.1 17.5 9.4 9.3 17.5 16.8 18 16.7 0.5-0.1 0.7 0.1 0.5 0.5-0.2 0.4 4.6 5.8 10.8 12.1l11.2 11.3c45.3-0.5 55.5-1 55.5-1.6 0-0.6-12.4-13.4-27.6-28.5-15.2-15.2-27.4-27.9-27.3-28.3 0.2-0.4 31.9-32.4 70.4-71.2 38.5-38.8 70.1-71 70.2-71.6 0.1-0.5-42.5-43.7-94.7-95.9-73.8-73.8-94.9-95.4-94.4-96.8 0.4-1 0.6-2.1 0.5-2.5-0.1-0.4 0.2-0.5 0.6-0.3 0.4 0.2 31.1-29.9 68.3-67l67.5-67.4 41 41.1c22.1-22.2 28.5-28.9 28.5-29.1 0-0.3-11.6-12.1-25.8-26.3l-25.7-25.7h-36.2c-114.6 114.7-148.4 147.9-149.1 147.7-0.6-0.1-23-22.1-49.8-48.7l-48.5-48.5c72.5-72.5 93.9-93.5 94.3-93.5 0.4 0 15 14.3 32.5 31.9 17.5 17.6 32.3 32.1 32.9 32.2 0.7 0.2 7.5-5.9 15.3-13.6 7.8-7.7 14.1-14.3 14.1-14.5 0-0.3-21.2-21.7-47.1-47.5-25.8-25.9-47.3-47.2-47.7-47.3-0.4-0.1-3.2 2.2-6.3 5.2z"/></svg>